<?xml version="1.0" encoding="UTF-8" standalone="no"?>
<!-- Created with Inkscape (http://www.inkscape.org/) -->
<svg
   xmlns:svg="http://www.w3.org/2000/svg"
   xmlns="http://www.w3.org/2000/svg"
   version="1.0"
   width="1133.8583"
   height="404.29132"
   id="svg2">
  <defs
     id="defs4" />
  <g
     transform="translate(882.08379,427.17631)"
     id="layer1">
    <g
       transform="matrix(1.8464891,0,0,1.8464891,397.725,321.44291)"
       id="g3163">
      <path
         d="M -636.20868,-315.31107 C -636.20868,-317.87694 -636.06787,-326.02828 -635.00397,-331.20696 C -632.29729,-344.05196 -625.13163,-349.29322 -609.20445,-351.62441 C -599.75453,-353.03251 -589.1312,-353.51752 -570.51299,-353.51752 C -553.25594,-353.51752 -521.83966,-351.60876 -502.15755,-349.74694 L -502.15755,-381.36661 C -524.57764,-383.49441 -553.99128,-384.60524 -574.92504,-384.60524 C -605.69985,-384.60524 -622.87867,-382.85294 -637.33516,-378.19056 C -659.37975,-371.05619 -671.33295,-353.90866 -672.7567,-327.96833 C -673.30429,-318.00211 -673.91447,-306.97199 -673.91447,-295.98881 C -673.91447,-284.97434 -673.30429,-273.91293 -672.7567,-263.978 C -671.33295,-238.05332 -659.37975,-220.90579 -637.33516,-213.77141 C -622.87867,-209.09339 -605.69985,-207.35674 -574.92504,-207.35674 C -553.99128,-207.35674 -524.57764,-208.46757 -502.15755,-210.61101 L -502.15755,-242.19939 C -521.83966,-240.33757 -553.25594,-238.42881 -570.51299,-238.42881 C -589.1312,-238.42881 -599.75453,-238.92947 -609.20445,-240.30628 C -625.13163,-242.65311 -632.29729,-247.89437 -635.00397,-260.72373 C -636.06787,-265.91805 -636.20868,-274.05374 -636.20868,-276.61961 L -636.22433,-281.17247 L -505.3336,-281.17247 L -505.3336,-312.19761 L -636.22433,-312.19761 L -636.20868,-315.31107"
         id="path2500"
         style="fill:#000000;fill-opacity:1;fill-rule:nonzero;stroke:none" />
      <path
         d="M -232.26708,-380.53589 C -221.456,-383.08612 -195.50002,-384.60374 -181.01224,-384.60374 C -156.48001,-384.60374 -133.21507,-383.49291 -104.67757,-380.19169 L -104.67757,-347.10134 C -133.73137,-352.26438 -154.52431,-354.04797 -183.53117,-354.04797 C -195.23405,-354.04797 -205.73222,-353.64118 -215.32294,-352.5147 C -228.91893,-350.91886 -233.50308,-344.59805 -233.50308,-333.8652 C -233.50308,-323.10106 -228.91893,-316.78025 -215.32294,-315.18441 C -205.04381,-313.99534 -193.76337,-313.66679 -181.01224,-313.66679 L -181.01224,-313.60421 C -166.18025,-313.26 -144.96488,-311.75803 -135.48367,-309.47378 C -108.51073,-302.96523 -98.231597,-284.62864 -98.231597,-260.50319 C -98.231597,-236.3621 -108.51073,-218.0255 -135.48367,-211.50131 C -146.2791,-208.91979 -172.25073,-207.35523 -186.72287,-207.35523 C -217.34122,-207.35523 -238.30627,-208.46607 -267.01586,-211.73599 L -267.01586,-244.84199 C -237.27366,-239.53814 -217.04395,-237.89536 -186.72287,-237.89536 C -173.98738,-237.89536 -162.70694,-238.25521 -152.41216,-239.50685 C -138.83182,-241.18093 -134.24767,-247.4235 -134.24767,-258.67266 C -134.24767,-269.90617 -138.83182,-276.1331 -152.41216,-277.82282 C -162.70694,-279.10575 -173.98738,-279.41867 -186.72287,-279.41867 L -186.72287,-279.51254 C -201.55485,-279.8098 -222.77023,-281.26484 -232.26708,-283.5178 C -259.22437,-289.91683 -269.51915,-308.31601 -269.51915,-332.01903 C -269.51915,-355.73769 -259.22437,-374.15251 -232.26708,-380.53589"
         id="path2504"
         style="fill:#000000;fill-opacity:1;fill-rule:nonzero;stroke:none" />
      <path
         d="M -485.07111,-295.95276 C -485.07111,-306.96724 -484.46093,-319.65578 -483.89769,-329.59071 C -482.48959,-355.54669 -470.53638,-372.67857 -448.50744,-379.7973 C -434.05095,-384.47532 -416.87213,-386.24327 -386.05038,-386.24327 C -355.25993,-386.24327 -338.08111,-384.47532 -323.64026,-379.7973 C -301.62696,-372.67857 -289.64246,-355.54669 -288.20307,-329.59071 C -287.67112,-319.65578 -287.06095,-306.96724 -287.06095,-295.95276 C -287.06095,-284.96958 -287.67112,-272.28104 -288.20307,-262.31482 C -289.64246,-236.39013 -301.62696,-219.25825 -323.64026,-212.13952 C -338.08111,-207.44585 -355.25993,-205.66226 -386.05038,-205.66226 C -416.87213,-205.66226 -434.05095,-207.44585 -448.50744,-212.13952 C -470.53638,-219.25825 -482.48959,-236.39013 -483.89769,-262.31482 C -484.46093,-272.28104 -485.07111,-284.96958 -485.07111,-295.95276 M -446.27013,-263.50388 C -445.04977,-251.09695 -439.51125,-243.97823 -426.44721,-240.14507 C -418.34281,-237.78259 -403.02581,-236.70304 -386.05038,-236.70304 C -369.10624,-236.70304 -353.78924,-237.78259 -345.68485,-240.14507 C -332.62081,-243.97823 -327.08228,-251.09695 -325.84628,-263.50388 C -324.67286,-275.36321 -324.57899,-284.17166 -324.57899,-295.95276 C -324.57899,-307.76516 -324.67286,-316.58925 -325.84628,-328.41729 C -327.08228,-340.83986 -332.62081,-347.94295 -345.68485,-351.77611 C -353.78924,-354.16988 -369.10624,-355.24942 -386.05038,-355.24942 C -403.02581,-355.24942 -418.34281,-354.16988 -426.44721,-351.77611 C -439.51125,-347.94295 -445.04977,-340.83986 -446.27013,-328.41729 C -447.45919,-316.58925 -447.55306,-307.76516 -447.55306,-295.95276 C -447.55306,-284.17166 -447.45919,-275.36321 -446.27013,-263.50388"
         id="path2508"
         style="fill:#000000;fill-opacity:1;fill-rule:nonzero;stroke:none" />
    </g>
  </g>
</svg>
